<?xml version="1.0" encoding="UTF-8" standalone="no"?>
<!-- Created with Inkscape (http://www.inkscape.org/) -->

<svg
   xmlns:dc="http://purl.org/dc/elements/1.1/"
   xmlns:cc="http://creativecommons.org/ns#"
   xmlns:rdf="http://www.w3.org/1999/02/22-rdf-syntax-ns#"
   xmlns:svg="http://www.w3.org/2000/svg"
   xmlns="http://www.w3.org/2000/svg"
   xmlns:xlink="http://www.w3.org/1999/xlink"
   xmlns:sodipodi="http://sodipodi.sourceforge.net/DTD/sodipodi-0.dtd"
   xmlns:inkscape="http://www.inkscape.org/namespaces/inkscape"
   width="297mm"
   height="420mm"
   viewBox="0 0 1052.3622 1488.189"
   id="svg2"
   version="1.1"
   inkscape:version="0.91 r13725"
   sodipodi:docname="drawing.svg">
  <defs
     id="defs4">
    <linearGradient
       id="linearGradient4364"
       inkscape:collect="always">
      <stop
         id="stop4366"
         offset="0"
         style="stop-color:#f081f0;stop-opacity:1;" />
      <stop
         id="stop4368"
         offset="0.23907037"
         style="stop-color:#f0c6ff;stop-opacity:0.93725491" />
      <stop
         style="stop-color:#f7ffff;stop-opacity:0.96862745"
         offset="0.40731296"
         id="stop4370" />
      <stop
         id="stop4372"
         offset="0.62577534"
         style="stop-color:#f94eff;stop-opacity:0.97647059" />
      <stop
         id="stop4374"
         offset="1"
         style="stop-color:#ffffff;stop-opacity:1" />
    </linearGradient>
    <linearGradient
       inkscape:collect="always"
       id="linearGradient4345">
      <stop
         style="stop-color:#f081f0;stop-opacity:1;"
         offset="0"
         id="stop4349" />
      <stop
         style="stop-color:#f0c6ff;stop-opacity:0.93725491"
         offset="0.23907037"
         id="stop4357" />
      <stop
         id="stop4350"
         offset="0.40731296"
         style="stop-color:#f7ffff;stop-opacity:0.96862745" />
      <stop
         style="stop-color:#f94eff;stop-opacity:0.97647059"
         offset="0.70207989"
         id="stop4352" />
      <stop
         style="stop-color:#ffffff;stop-opacity:1"
         offset="1"
         id="stop4351" />
    </linearGradient>
    <filter
       inkscape:collect="always"
       style="color-interpolation-filters:sRGB"
       id="filter4460"
       x="-0.17450821"
       width="1.3490164"
       y="-0.10614443"
       height="1.2122889">
      <feGaussianBlur
         inkscape:collect="always"
         stdDeviation="3.3840491"
         id="feGaussianBlur4462" />
    </filter>
    <filter
       inkscape:collect="always"
       style="color-interpolation-filters:sRGB"
       id="filter5141"
       x="-0.035505424"
       width="1.0710108"
       y="-0.074063346"
       height="1.1481267">
      <feGaussianBlur
         inkscape:collect="always"
         stdDeviation="2.670661"
         id="feGaussianBlur5143" />
    </filter>
    <filter
       inkscape:collect="always"
       style="color-interpolation-filters:sRGB"
       id="filter5157"
       x="-0.025880489"
       width="1.051761"
       y="-0.059114202"
       height="1.1182284">
      <feGaussianBlur
         inkscape:collect="always"
         stdDeviation="3.4626568"
         id="feGaussianBlur5159" />
    </filter>
    <filter
       inkscape:collect="always"
       style="color-interpolation-filters:sRGB"
       id="filter5239"
       x="-0.071253035"
       width="1.1425061"
       y="-0.22301374"
       height="1.4460275">
      <feGaussianBlur
         inkscape:collect="always"
         stdDeviation="2.6154297"
         id="feGaussianBlur5241" />
    </filter>
    <filter
       inkscape:collect="always"
       style="color-interpolation-filters:sRGB"
       id="filter5464"
       x="-0.13515247"
       width="1.2703049"
       y="-0.15442489"
       height="1.3088498">
      <feGaussianBlur
         inkscape:collect="always"
         stdDeviation="7.4712738"
         id="feGaussianBlur5466" />
    </filter>
    <filter
       inkscape:collect="always"
       style="color-interpolation-filters:sRGB"
       id="filter5738"
       x="-0.19482353"
       width="1.3896471"
       y="-0.18925714"
       height="1.3785143">
      <feGaussianBlur
         inkscape:collect="always"
         stdDeviation="1.539696"
         id="feGaussianBlur5740" />
    </filter>
    <filter
       inkscape:collect="always"
       style="color-interpolation-filters:sRGB"
       id="filter5804"
       x="-0.12176471"
       width="1.2435294"
       y="-0.11828571"
       height="1.2365714">
      <feGaussianBlur
         inkscape:collect="always"
         stdDeviation="0.96231003"
         id="feGaussianBlur5806" />
    </filter>
    <filter
       inkscape:collect="always"
       style="color-interpolation-filters:sRGB"
       id="filter4908"
       x="-0.015767438"
       width="1.0315349"
       y="-0.020969079"
       height="1.0419382">
      <feGaussianBlur
         inkscape:collect="always"
         stdDeviation="4.9375484"
         id="feGaussianBlur4910" />
    </filter>
    <linearGradient
       inkscape:collect="always"
       xlink:href="#linearGradient4345"
       id="linearGradient5065"
       gradientUnits="userSpaceOnUse"
       gradientTransform="translate(-2837.3462,185.34315)"
       x1="3254.6348"
       y1="-398.62091"
       x2="3285.5911"
       y2="-148.86754" />
    <linearGradient
       inkscape:collect="always"
       xlink:href="#linearGradient4364"
       id="linearGradient5067"
       gradientUnits="userSpaceOnUse"
       gradientTransform="translate(-4925,324)"
       x1="5371.5596"
       y1="367.03415"
       x2="5405.4697"
       y2="655.79083" />
  </defs>
  <sodipodi:namedview
     id="base"
     pagecolor="#ffffff"
     bordercolor="#666666"
     borderopacity="1.0"
     inkscape:pageopacity="0.0"
     inkscape:pageshadow="2"
     inkscape:zoom="0.1767767"
     inkscape:cx="214.3734"
     inkscape:cy="1230.816"
     inkscape:document-units="px"
     inkscape:current-layer="layer1"
     showgrid="false"
     showguides="false"
     inkscape:guide-bbox="true"
     inkscape:window-width="1280"
     inkscape:window-height="751"
     inkscape:window-x="0"
     inkscape:window-y="1"
     inkscape:window-maximized="1"
     inkscape:snap-bbox="true"
     inkscape:snap-global="true">
    <sodipodi:guide
       position="737.50001,-100"
       orientation="0,1"
       id="guide3383" />
    <sodipodi:guide
       position="4896.0074,1456.64"
       orientation="0,1"
       id="guide4209" />
    <sodipodi:guide
       position="5301.5626,1281.375"
       orientation="0.99317498,0.11663387"
       id="guide4354" />
    <sodipodi:guide
       position="1661.9186,372.79608"
       orientation="0,1"
       id="guide4463" />
    <sodipodi:guide
       position="1257.012,957.05211"
       orientation="0,1"
       id="guide4465" />
    <sodipodi:guide
       position="1560.1046,530.99945"
       orientation="0,1"
       id="guide4479" />
    <sodipodi:guide
       position="548.71487,586.89864"
       orientation="0,1"
       id="guide4720" />
  </sodipodi:namedview>
  <metadata
     id="metadata7">
    <rdf:RDF>
      <cc:Work
         rdf:about="">
        <dc:format>image/svg+xml</dc:format>
        <dc:type
           rdf:resource="http://purl.org/dc/dcmitype/StillImage" />
        <dc:title></dc:title>
      </cc:Work>
    </rdf:RDF>
  </metadata>
  <g
     inkscape:label="Layer 1"
     inkscape:groupmode="layer"
     id="layer1"
     transform="translate(0,435.82677)">
    <rect
       style="fill:#9f4fa5;fill-opacity:1;stroke:none;stroke-opacity:1"
       id="rect4912"
       width="1190.333"
       height="1518.0774"
       x="-57.966274"
       y="-466.12308" />
    <g
       id="g4965"
       transform="translate(-14.142104,-73.539105)">
      <path
         style="fill:url(#linearGradient5065);fill-opacity:1;fill-rule:evenodd;stroke:#bc07a0;stroke-width:7;stroke-miterlimit:4;stroke-dasharray:none;stroke-opacity:1"
         d="m 194.29289,24.27618 c -14.7827,-0.67974 -16.8039,-1.18614 -17.4534,-4.37287 -0.5099,-2.50194 -1.0521,-24.27443 -3.0291,-121.6397 -0.7984,-39.325 -1.7117,-78.08521 -2.0294,-86.1338 -0.4994,-12.6512 -0.3587,-14.85276 1.0386,-16.25 3.092,-3.09206 5.8594,-1.84546 17.051,7.68078 6.0073,5.11334 20.1799,17.20152 31.4946,26.86263 l 20.5724,17.56566 6.312,-14.61264 c 3.4717,-8.03694 9.2414,-21.28217 12.8215,-29.43383 9.1485,-20.82995 11.3679,-21.83346 18.8593,-8.52735 2.2755,4.0417 14.3607,25.12355 26.856,46.84855 69.7266,121.23004 86.5065,150.87101 86.5065,152.80957 0,1.17938 -1.0125,2.79499 -2.25,3.59024 -4.8112,3.09186 -42.7264,20.60019 -44.6108,20.60019 -1.0967,0 -2.8142,-1.05393 -3.8166,-2.34207 -1.0024,-1.28814 -10.4853,-19.71504 -25.6103,-45.91804 -15.125,-26.203 -23.3846,-43.22106 -28.0578,-47.65792 -5.1481,-3.3895 -6.6496,2.62933 -9.5579,10.83203 -2.9083,8.2027 -5.9453,15.8527 -6.7489,17 -2.8906,4.12694 -5.7466,2.7303 -21.5139,-10.52081 -10.2133,-8.15416 -14.3527,-12.617 -14.434,-3.75 0.3116,4.87124 0.8436,26.0821 1.1822,47.13524 0.4734,29.42785 0.3333,38.61868 -0.6056,39.75 -1.3228,1.59385 -15.3954,1.75238 -42.9764,0.48414 z M 845.96969,12.1026 c -0.884,-0.49472 -13.1584,-14.49838 -27.2763,-31.11924 -14.1179,-16.62086 -26.0168,-30.35582 -26.4419,-30.52213 -0.4251,-0.16632 -3.4472,3.65868 -6.7157,8.5 -23.2659,34.46116 -35.5968,51.92211 -37.1881,52.65945 -1.0924,0.50615 -2.5906,0.44246 -3.6592,-0.15558 -1.073,-0.60044 -6.9448,-12.95737 -14.4252,-30.35707 -17.2833,-40.20152 -42.535,-98.74593 -62.4752,-144.84442 -9.1593,-21.175 -16.674,-39.54625 -16.6993,-40.825 -0.025,-1.27875 0.3708,-2.74174 0.8802,-3.2511 0.5094,-0.50935 13.6595,-3.19862 29.2225,-5.97615 25.1542,-4.48928 28.5353,-4.8921 30.4489,-3.62754 1.4336,0.94739 9.1596,17.16584 23.1317,48.55808 11.5386,25.92457 21.2864,47.01996 21.6619,46.87864 0.3754,-0.14131 5.4961,-5.99443 11.3792,-13.00693 8.0053,-9.54196 11.2758,-12.75 12.9983,-12.75 1.6528,0 6.0889,3.94657 15.7364,14 7.3892,7.7 13.7297,14 14.09,14 0.3602,0 0.655,-0.66676 0.655,-1.4817 0,-1.48424 16.615,-81.47322 17.6079,-84.76936 1.2454,-4.13387 3.2948,-4.02648 34.1423,1.78902 16.3624,3.08471 30.7623,6.26097 31.9998,7.05835 1.2375,0.79739 2.25,2.33993 2.25,3.42788 0,1.84093 -5.4587,27.3569 -19.9976,93.47581 -3.2654,14.85 -10.0119,45.64111 -14.9922,68.4247 -4.9804,22.78358 -9.5099,41.97245 -10.0655,42.64193 -1.4337,1.72756 -4.3843,2.3265 -6.2679,1.27236 z M 397.50939,2.01361 c -0.5656,-0.6875 -3.3034,-12.5 -6.084,-26.25 -7.6042,-37.60301 -29.6824,-146.27533 -32.5848,-160.38752 -1.4012,-6.81313 -2.5477,-13.38089 -2.5477,-14.59501 0,-5.42168 -1.7361,-5.25719 68.252,-6.4667 63.9818,-1.10572 68.748,-0.96947 68.748,1.96517 0,0.52006 1.575,10.92638 3.5,23.12516 4.0619,25.7402 4.0263,25.18972 1.7725,27.44354 -1.5939,1.59394 -4.2224,1.67553 -34,1.05537 l -32.2725,-0.67213 0,2.26606 c 0,2.44153 2.9565,20.05905 3.444,20.54657 0.1622,0.16217 9.4378,0.93783 20.6126,1.72369 16.9135,1.18944 20.6163,1.72766 22.0997,3.21232 1.1827,1.18366 3.1412,8.10403 5.8233,20.57682 4.0927,19.03296 4.1735,21.6041 0.7485,23.83922 -0.5331,0.3479 -9.6907,0.95957 -20.3503,1.35925 -10.6595,0.39968 -19.375,1.01503 -19.3677,1.36744 0.043,2.05404 5.7882,25.27553 6.4069,25.89435 0.4105,0.41052 15.0873,0.9714 32.6151,1.2464 20.8523,0.32716 32.2417,0.87357 32.9474,1.58066 1.7618,1.76508 7.6437,47.20194 6.3721,49.22315 -0.9297,1.47776 -3.8866,1.77646 -22.961,2.31948 -42.445,1.20835 -102.0535,0.9927 -103.1773,-0.37329 z m 180.1213,-1 c -3.3136,-3.7078 -69.3378,-108.43423 -69.3378,-109.98246 0,-0.78658 8.55,-23.15836 19,-49.71508 10.45,-26.55671 19,-48.40948 19,-48.56171 0,-2.02969 52.1024,0.72031 55.5,2.92933 3.0341,1.97271 74.8554,105.64162 75.3036,108.69541 0.4692,3.19624 -36.9945,95.68996 -39.5458,97.63451 -1.2222,0.93152 -8.8083,1.25 -29.7746,1.25 -27.9141,0 -28.1503,-0.0176 -30.1454,-2.25 z m 29.0602,-83.70495 c 4.1811,-7.12522 7.602,-13.41849 7.602,-13.98504 0,-0.78419 -26.4638,-37.26682 -29.9907,-41.34467 -0.6879,-0.79543 -13.0093,27.78329 -13.0093,30.17438 0,0.71445 2.6245,4.96904 5.8323,9.45464 3.2078,4.4856 9.0781,12.76814 13.0451,18.40564 3.967,5.6375 7.5966,10.25 8.0657,10.25 0.4691,0 4.2738,-5.82973 8.4549,-12.95495 z"
         id="path4967"
         inkscape:connector-curvature="0"
         sodipodi:nodetypes="scsscssccsssssssscssccscssscsccsscsscscssssscssssssscsssssssscscscsssccscssccssssscssssscsssss" />
      <path
         sodipodi:nodetypes="ssssscssssssscssssscssssssscsscsssss"
         inkscape:connector-curvature="0"
         id="path4969"
         d="m 482.17333,653.77494 c -126.352,-6.85433 -233.0198,-24.3856 -289.8932,-85.43489 -28.7294,-30.8388 -52.8467,-77.84043 -62.5909,-121.98173 -4.9961,-22.6327 -6.9079,-54.4007 -4.6381,-77.06987 4.1836,-41.78163 19.2136,-82.99684 43.5726,-119.48506 l 9.261,-13.87221 -3.9741,-10.77428 c -5.2376,-14.20025 -10.3878,-33.07059 -12.9088,-47.29858 -1.5492,-8.74327 -2.0292,-15.69503 -2.0022,-29 0.042,-20.67621 1.7797,-51.969833 3.1753,-57.178853 1.4683,-5.48025 4.9092,-6.34 24.9469,-6.23324 13.7051,0.073 18.7216,0.5405 29.6154,2.75982 36.3402,7.40335 72.1362,20.491073 110.8846,40.541643 l 15,7.76183 8,-3.35269 c 12.7831,-5.35723 41.8413,-15.71381 56.5,-20.13705 75.8738,-22.894883 136.6059,-27.925313 200,-16.565973 26.8954,4.819283 59.8882,14.068833 89,24.951193 13.0184,4.86646 30.774,12.26354 36.5516,15.2276 l 3.8728,1.9869 4.5378,-3.79414 c 15.8344,-13.23948 43.457,-28.57902 63.0318,-35.003213 26.7827,-8.7897 77.7748,-21.39864 96.9856,-23.98184 11.3035,-1.51993 15.9033,-0.74976 19.7404,3.30528 7.2737,7.68693 8.4007,13.36651 9.0016,45.365833 0.5577,29.7005 -0.5932,47.54667 -4.2885,66.4983 -3.0592,15.68954 -9.0317,36.15871 -15.6149,53.51608 l -4.9941,13.16748 7.2389,8.33252 c 18.6001,21.40987 30.6836,46.1179 37.0863,75.83252 1.9876,9.22438 2.2666,13.41571 2.297,34.5 0.029,20.45421 -0.2884,25.77289 -2.1511,36 -5.8101,31.89977 -19.4892,67.59744 -39.083,101.99294 -7.3758,12.94758 -22.923,36.34127 -30.2436,45.50706 -49.3395,61.77609 -143.7974,78.89707 -273.9686,91.46771 -35.1165,3.39121 -87.5,4.42617 -123.9485,2.44891 z"
         style="fill:#a63773;fill-opacity:1;stroke:#630e6c;stroke-width:6.4000001;stroke-miterlimit:4;stroke-dasharray:none;stroke-opacity:1" />
      <path
         style="fill:url(#linearGradient5067);fill-opacity:1;stroke:#bc07a0;stroke-width:7;stroke-miterlimit:4;stroke-dasharray:none;stroke-opacity:1"
         d="m 505.23399,937.6941 c -14.85,-0.3203 -27.7233,-0.9433 -28.6074,-1.3846 -1.7452,-0.871 -61.9547,-110.549 -62.6146,-114.0592 -0.2212,-1.1762 0.6751,-4.1635 1.9916,-6.6385 1.3166,-2.475 14.2175,-27.34735 28.6688,-55.27189 14.4512,-27.92455 27.0973,-51.21205 28.1025,-51.75 1.0746,-0.57512 14.1857,-0.97811 31.8219,-0.97811 24.9088,0 30.2409,0.24657 31.4486,1.45423 0.7998,0.79983 6.5236,10.81233 12.7194,22.25 6.1959,11.43768 14.738,27.09577 18.9825,34.79577 23.7673,43.1168 35.9867,66.3251 35.9867,68.3491 0,2.8811 0.4221,2.0964 -16.4894,30.6509 -7.8178,13.2 -20.1907,34.125 -27.4953,46.5 -7.3047,12.375 -14.0946,23.3608 -15.0888,24.4128 -2.2266,2.3562 -4.0345,2.4327 -39.4265,1.6695 z m 17.0033,-84.2562 c 6.5065,-9.4457 11.8275,-17.6582 11.8243,-18.25 0,-0.8588 -26.7732,-51.26752 -27.8139,-52.37705 -0.2982,-0.31794 -8.9093,15.04605 -17.1182,30.54235 l -4.8955,9.2415 5.8085,11.2585 c 3.1947,6.1922 8.7104,16.9961 12.2572,24.0086 3.5467,7.0125 6.8219,12.75 7.2781,12.75 0.4562,0 6.153,-7.7283 12.6595,-17.1739 z m 366.2219,82.6192 c -19.2204,-4.6937 -31.4055,-17.7834 -32.5051,-34.9181 -0.2584,-4.025 0.059,-9.5222 0.7052,-12.216 1.6609,-6.9234 8.0687,-16.5603 13.7664,-20.7039 6.5501,-4.7635 19.0404,-8.7947 27.3083,-8.8136 20.5613,-0.047 37.0019,17.7544 36.9992,40.0616 0,21.9965 -25.022,41.7799 -46.274,36.59 z m -560.3171,-37.1122 c -14.2495,-18.5169 -27.0679,-35.0087 -28.4853,-36.6485 l -2.5773,-2.9815 -20.8375,25.8984 c -11.4606,14.2442 -23.086,28.7037 -25.8343,32.1324 -2.7482,3.4286 -5.8461,6.5034 -6.8842,6.8329 -3.314,1.0518 -6.1726,-2.0387 -8.9833,-9.7123 -3.4196,-9.3359 -16.1343,-43.6918 -28.813,-77.8545 -5.4092,-14.575 -14.1684,-38.2 -19.4649,-52.5 -11.1863,-30.2019 -19.0766,-51.45841 -34.448,-92.80269 -6.0942,-16.39148 -11.0803,-30.44361 -11.0803,-31.22695 0,-3.51622 4.0807,-4.21168 34.7456,-5.92149 16.6351,-0.92754 31.1481,-1.40001 32.2511,-1.04993 1.103,0.35008 2.447,1.46166 2.9868,2.47019 0.5397,1.00852 10.896,31.20983 23.014,67.11401 12.118,35.90419 15.0774,43.47585 22.6436,57.75954 5.0913,5.09129 7.0937,1.26647 15.8813,-7.00684 18.2413,-17.17363 19.6207,-18.24259 22.401,-17.36014 1.1118,0.35285 7.9608,7.88441 15.22,16.73679 10.7272,13.08142 13.3244,15.73874 13.8701,14.19137 0.3693,-1.04712 6.2174,-23.50386 12.9957,-49.90386 7.6018,-29.60763 12.981,-48.71009 14.0384,-49.85318 1.6635,-1.79825 2.7591,-1.65054 36.9631,4.98317 41.8686,8.12024 39.5382,6.86323 36.0849,19.46402 -2.1033,7.67483 -11.0415,38.87657 -46.2372,161.40599 -8.8471,30.8 -16.5003,56.7875 -17.0072,57.75 -0.5435,1.0321 -2.073,1.75 -3.7283,1.75 -2.5071,0 -5.573,-3.5947 -28.7148,-33.6669 z m 329.2527,31.4169 c -0.762,-1.2375 -18.6566,-53.8783 -39.7658,-116.9795 -38.1642,-114.08297 -38.3693,-114.74006 -36.3877,-116.61289 2.2909,-2.16532 66.1154,-16.62335 68.8132,-15.58813 1.9452,0.74644 2.9868,3.61181 10.6987,29.43052 3.3678,11.275 7.1855,23.875 8.4838,28 1.2983,4.125 5.3599,17.4 9.0259,29.5 3.6659,12.1 7.0101,22.36605 7.4316,22.81344 0.4215,0.44739 8.3572,-7.09011 17.6348,-16.75 19.6909,-20.50214 20.0236,-20.66168 25.6765,-12.31344 18.5541,27.40045 17.3967,25.97056 18.6047,22.98414 0.6084,-1.50378 9.1771,-24.96376 19.0417,-52.1333 9.8646,-27.16953 18.7561,-50.20143 19.7587,-51.18199 1.5866,-1.55154 5.103,-1.92141 27.104,-2.85085 13.9044,-0.5874 29.5316,-1.068 34.7269,-1.068 14.8439,0 14.7513,-1.65994 1.9009,34.06957 -5.8216,16.18674 -15.0185,41.80543 -20.4375,56.93043 -5.4189,15.125 -12.5283,34.925 -15.7986,44 -3.2703,9.075 -13.4493,37.425 -22.62,63 -9.1708,25.575 -17.4077,47.0625 -18.3045,47.75 -2.5621,1.9643 -5.0294,1.4808 -7.6543,-1.5 -1.3319,-1.5125 -12.7698,-15.2398 -25.4176,-30.5051 l -22.9959,-27.755 -4.9236,6.255 c -2.7079,3.4403 -12.9547,16.8301 -22.7705,29.7551 -23.9706,31.5631 -25.1922,33 -28.0563,33 -1.3949,0 -2.9585,-0.9333 -3.7691,-2.25 z m 222.8946,-82.1037 c -2.3524,-2.3524 -2.5557,-3.2542 -2.5595,-11.3508 0,-4.8375 -0.4388,-21.6205 -0.9701,-37.2955 -4.3005,-126.86946 -4.2855,-126.16888 -2.7432,-127.71113 1.8432,-1.84328 89.33581,-21.50929 92.45221,-20.78081 1.2942,0.30253 2.4927,1.55031 2.8477,2.96463 0.7841,3.12409 0.2785,5.21193 -22.044,91.02731 -10.30081,39.6 -19.60571,75.5986 -20.67751,79.9969 -3.5779,14.6826 -4.9626,18.5244 -7.1904,19.9497 -1.1938,0.7638 -8.4706,2.1211 -16.1706,3.0163 -7.7,0.8952 -15.4375,1.8777 -17.1946,2.1832 -2.5371,0.4413 -3.7204,0.03 -5.75,-1.9998 z"
         id="path4971"
         inkscape:connector-curvature="0"
         sodipodi:nodetypes="scccscscssssscssccscscsssccsscssccsscssssssscscscscscssscsscscssssssscscsssssscssccsscccscscsscscc" />
      <path
         style="fill:#f9ace2;fill-opacity:1;fill-rule:evenodd;stroke:none;stroke-width:1px;stroke-linecap:butt;stroke-linejoin:miter;stroke-opacity:1;filter:url(#filter4908)"
         d="m 177.61378,121.73901 c 15.77636,45.44466 36.46555,75.09695 67.00924,88.05348 -11.49286,-9.55137 -22.2425,-19.84595 -29.35115,-33.78153 12.3681,8.58314 24.73619,17.01895 37.10429,22.70562 -13.83735,-11.94742 -26.56397,-25.37581 -35.9967,-43.19605 12.80719,9.00052 26.02653,18.82534 35.9967,22.15182 l -31.56634,-31.56634 29.35116,14.95248 -31.56634,-33.22773 32.67393,16.61386 C 232.38203,122.44379 201.44436,103.90783 175.3986,86.202529 233.80085,92.80335 282.84276,108.78318 326.58475,154.96674 l 58.62721,19.21701 -33.70641,-20.8784 63.14205,18.66322 -55.94271,-24.75497 71.50844,19.17008 -46.58765,-22.49285 58.63035,15.15272 -43.77173,-25.52152 51.59683,21.9985 -28.79736,-29.90495 38.77506,29.38557 -20.38091,-27.71166 29.54825,21.50101 -19.73324,-27.40504 31.55067,24.5422 -12.13342,-29.17281 22.70561,21.04423 -4.43036,-21.04423 16.56693,27.06715 -5.49102,-30.94372 12.73729,19.93664 11.07591,-19.93664 -2.21518,21.04423 13.84488,-18.27525 -7.19934,36.5505 25.47459,-38.21188 -15.50627,53.71815 35.9967,-50.94918 -26.58218,56.48714 42.08846,-55.93334 -19.93664,37.10429 44.85743,-35.44291 -37.65809,43.19605 52.61057,-37.65809 -43.74984,39.87327 67.56304,-32.12013 -53.71816,38.21188 63.68648,-28.79736 -43.19604,34.88911 59.8099,-28.79736 -46.51881,36.5505 67.56304,-35.44291 -29.76102,31.36609 42.50382,-28.56826 -19.93956,31.49934 30.22091,-28.79257 -9.32383,28.39848 19.5725,-21.69189 -0.59889,22.12413 C 766.65243,135.60043 805.48764,87.310119 912.50032,79.003188 893.41297,85.454037 840.70083,100.51907 811.52991,140.7357 l 50.73954,-21.11157 -49.65299,36.24335 47.13125,-20.04422 -48.47021,33.72569 50.69659,-16.36664 -44.42229,27.14034 42.09554,-11.18374 -35.7738,24.30033 c -0.70503,4.75317 27.92233,-10.34131 25.30382,-8.33508 -19.96598,15.29736 -23.55736,27.91638 2.67728,14.42734 4.74915,-2.44187 -12.88215,16.66671 -5.80977,17.46033 39.99847,-29.37344 43.58702,-72.40059 62.57888,-109.6515 5.75382,50.43748 -3.17628,96.87024 -29.90495,138.44886 30.32181,84.77448 44.04343,221.36126 -24.92079,288.31554 l -1.41453,-23.56634 -22.76506,44.54368 1.81259,-32.91398 -22.52062,49.99125 2.0302,-44.4533 -17.46134,55.18399 6.38544,-53.5226 -26.94891,63.31044 9.78125,-47.95944 -30.85084,51.77661 8.14522,-37.13227 -27.70429,52.62919 7.21386,-37.7671 -28.07279,45.06028 5.36718,-30.6616 -24.09783,37.67324 8.03776,-33.79667 -27.79406,38.76705 10.07261,-30.46012 -29.8362,29.85308 0.27927,-35.90674 -20.8292,37.13689 10.58024,-67.54333 -30.88189,45.64761 15.3831,-54.51583 -31.84033,51.63873 2.62949,-58.95595 -13.54311,55.27068 -1.40937,-57.48587 -11.53516,69.02643 -8.95527,-63.48847 -4.93323,66.41326 -10.57304,-61.4291 -1.28916,62.59283 -9.23295,-61.48523 -4.17409,62.4525 -7.45562,-60.2373 -5.53795,60.5759 -3.87657,-62.7911 -5.26898,62.6835 -12.72564,-66.84071 1.40182,66.66733 -21.61909,-70.26327 4.38823,51.50816 -24.30154,-45.01145 c -2.30423,12.23229 6.25411,37.87378 10.03795,49.22531 l -29.03932,-42.08547 20.41155,45.49895 -31.42513,-24.02582 24.04051,40.94668 -50.66572,-44.67022 35.63496,48.54413 -48.71087,-47.88274 30.9311,53.45342 -35.51328,-37.59897 15.03136,45.79407 -32.12311,-52.66436 7.26239,53.27196 -20.74655,-51.51883 1.3637,40.12643 -26.05347,-49.003 3.5505,40.6802 -30.734,-52.1264 5.82905,46.6043 -19.67393,-46.05051 -1.53169,27.70561 -20.1264,-43.18156 -4.43037,33 c -8.1376,-32.03431 -15.48702,-36.06862 -20.96832,-68.10293 l 3.23103,58.10293 -18.7373,-56.59336 2,40.76568 c -12.95136,-40.11804 -14.27811,-25.42377 -16.96832,-60.41123 -2.17064,35.182 -3.16544,20.97206 2.56964,53.51882 -9.8679,-30.33034 -16.52931,-25.86717 -18.41452,-64.1802 l -1.87657,34.21188 C 158.73323,450.17519 137.55226,328.40643 206.96494,234.71328 171.559,199.02613 175.79328,160.28973 177.61378,121.73901 Z"
         id="path4973"
         inkscape:connector-curvature="0"
         sodipodi:nodetypes="cccccccccccccccccccccccccccccccccccccccccccccccccccccccccccccccccccccccsscccccccccccccccccccccccccccccccccccccccccccccccccccccccccccccccccccccccccccccccccc" />
      <path
         transform="matrix(1.1782329,0,0,1.1782329,-84.6859,-31.4092)"
         style="fill:#ffffff;fill-opacity:1;fill-rule:evenodd;stroke:none;stroke-width:1px;stroke-linecap:butt;stroke-linejoin:miter;stroke-opacity:1;filter:url(#filter5141)"
         d="m 436.66653,217.09538 c 20.66323,14.97169 41.29722,29.97262 54.82295,52.08181 l -14.09733,-30.54422 18.79644,21.146 -1.56637,-15.6637 13.31415,9.39822 -10.18141,-23.88715 14.88052,21.92918 -7.44026,-29.36943 11.35618,27.41147 -0.78318,-29.76103 3.13274,28.97785 1.17478,-29.36944 6.26548,30.93581 1.56637,-31.3274 2.34955,30.54421 5.4823,-25.45351 -2.34956,26.2367 8.22344,-26.62829 -4.30751,25.45351 11.35618,-25.45351 -7.44026,25.06192 13.70574,-23.49555 -8.61504,23.49555 13.70574,-18.79644 -7.44026,19.97121 13.70574,-18.01325 -6.26548,19.57962 15.27211,-23.10395 -10.96459,25.06192 16.83848,-23.10396 -9.78982,20.7544 14.48893,-16.83848 -13.31415,27.80307 c 7.4245,-9.49277 15.03689,-17.85821 23.49555,-21.14599 l -2.34955,-12.13937 23.49555,-27.80307 -27.80307,23.10396 20.36281,-25.84511 -28.97785,26.62829 9.39822,-16.05529 -12.13936,12.13937 12.13936,-30.15263 -27.01988,39.55085 17.62166,-43.85836 c -9.32122,11.82477 -17.95729,24.3347 -26.23669,37.20129 l 11.35618,-36.8097 -14.88052,31.3274 4.69911,-24.67033 -10.96459,22.71237 -1.17477,-8.22344 -5.09071,8.22344 5.87389,-30.15263 -11.35618,28.97785 0.78318,-30.93581 -5.87388,29.36944 -3.13274,-19.97122 -2.34956,21.53759 -9.39822,-32.50218 2.34956,30.15263 -9.00663,-21.53759 1.17478,21.53759 -10.18141,-16.83848 2.74115,21.14599 -10.96459,-16.05529 4.69911,18.01326 -12.13937,-17.23007 6.65707,20.7544 -18.01325,-14.09733 13.31414,21.14599 -27.41147,-13.31414 12.92255,16.44688 z"
         id="path4975"
         inkscape:connector-curvature="0"
         sodipodi:nodetypes="ccccccccccccccccccccccccccccccccccccccccccccccccccccccccccccccccccccccccc" />
      <path
         style="fill:#ffffff;fill-opacity:1;fill-rule:evenodd;stroke:none;stroke-width:1px;stroke-linecap:butt;stroke-linejoin:miter;stroke-opacity:1;filter:url(#filter5157)"
         d="m 496.48169,351.9293 75.57734,2.7412 116.30298,17.6216 -43.07518,5.8739 43.46677,5.0907 -43.07517,0.7832 44.24995,7.0487 -43.85836,-2.6991 45.42473,14.3628 -46.9911,-8.531 46.9911,20.3628 -46.9911,-10.9646 40.72562,20.3628 -45.42473,-14.0973 43.85836,21.9292 -46.9911,-15.6637 38.76766,23.8871 -41.9004,-16.0553 35.24333,27.4115 -43.07518,-18.0132 36.02651,28.1946 -39.15925,-20.3628 35.24332,28.1947 -39.94243,-21.9292 34.46014,28.1947 -37.59288,-21.9292 27.80307,25.0619 -34.06855,-21.9292 25.8451,25.8451 -35.63491,-19.5796 23.49555,26.6283 -32.89377,-21.5376 12.13936,27.8031 -27.01988,-28.5863 -75.57735,0.3916 -28.58625,32.5022 8.22344,-22.7124 -30.54421,27.4115 16.05529,-29.3694 -29.76103,28.1946 15.27211,-34.4601 -31.3274,35.2433 18.40484,-36.0265 -36.80969,23.4955 21.92918,-23.1039 -37.20129,14.4889 40.72562,-26.6283 -37.59288,15.6637 29.76103,-25.0619 -36.02651,14.0973 28.19466,-21.9292 -31.3274,12.531 32.89377,-25.0619 -36.02651,14.0973 36.02651,-26.6283 -39.15925,10.9646 34.46014,-18.7964 -36.02651,4.6991 34.46014,-15.6637 -32.89377,-1.5664 37.59288,-10.9646 -37.68469,1.4619 26.98693,-7.7786 -23.26022,-4.5419 z"
         id="path4977"
         inkscape:connector-curvature="0"
         sodipodi:nodetypes="ccccccccccccccccccccccccccccccccccccccccccccccccccccccccccccccccc" />
      <path
         sodipodi:nodetypes="cccccc"
         inkscape:connector-curvature="0"
         id="path4979"
         d="m 528.5221,403.1157 2.6198,-4.9868 2.4357,4.3832 c 7.336,14.8659 19.0966,34.9542 34.1793,54.5555 -0.8523,79.7558 -83.2113,74.317 -74,0.1767 13.3322,-17.4616 24.2235,-35.7369 34.7652,-54.1286 z"
         style="fill:#ad2e64;fill-opacity:1;fill-rule:evenodd;stroke:#630e6c;stroke-width:3.5999999;stroke-linecap:butt;stroke-linejoin:miter;stroke-miterlimit:4;stroke-dasharray:none;stroke-opacity:1" />
      <path
         sodipodi:nodetypes="ccccc"
         inkscape:connector-curvature="0"
         id="path4981"
         d="m 529.3404,405.1333 2.2365,-7.2038 0.9454,6.1432 c -3.1356,18.1771 -4.3266,36.1485 -5.5684,58.6898 -1.3736,-18.7525 -1.9395,-36.6591 2.3865,-57.6292 z"
         style="fill:#630d6b;fill-opacity:1;fill-rule:evenodd;stroke:#630d6b;stroke-width:1px;stroke-linecap:butt;stroke-linejoin:miter;stroke-opacity:1" />
      <path
         sodipodi:nodetypes="ccc"
         inkscape:connector-curvature="0"
         id="path4983"
         d="m 384.367,519.8604 c 83.8377,-11.8973 136.1916,-84.9064 146.5,-123 -29.7989,37.522 -40.6242,94.7078 -146.5,123 z"
         style="fill:#630e6c;fill-opacity:1;fill-rule:evenodd;stroke:none;stroke-width:1px;stroke-linecap:butt;stroke-linejoin:miter;stroke-opacity:1" />
      <path
         sodipodi:nodetypes="ccc"
         inkscape:connector-curvature="0"
         id="path4985"
         d="m 530.617,397.1104 c 15.0938,39.5819 72.7033,120.4293 147.25,124 -87.3557,-15.6747 -124.2977,-91.9701 -147.25,-124 z"
         style="fill:#630e6c;fill-opacity:1;fill-rule:evenodd;stroke:none;stroke-width:1px;stroke-linecap:butt;stroke-linejoin:miter;stroke-opacity:1" />
      <path
         sodipodi:nodetypes="cccccc"
         inkscape:connector-curvature="0"
         id="path4987"
         d="m 528.0408,471.3176 c -6.4887,-8.3807 -5.0783,-20.7109 -5.25,-32.25 -23.8578,17.3647 -17.6467,35.5005 -16.75,53.5 8.0325,26.6105 44.6935,15.8238 44.75,-5 2.0064,-20.5633 -3.4234,-39.1867 -16.75,-55.75 -1.9102,13.3233 -2.4035,29.12 -6,39.5 z"
         style="fill:#f95c9e;fill-opacity:1;fill-rule:evenodd;stroke:none;stroke-width:1px;stroke-linecap:butt;stroke-linejoin:miter;stroke-opacity:1;filter:url(#filter4460)" />
      <path
         style="fill:#630e6c;fill-opacity:1;fill-rule:evenodd;stroke:none;stroke-width:1px;stroke-linecap:butt;stroke-linejoin:miter;stroke-opacity:1"
         d="m 292.44162,434.8622 c 29.8218,-56.17 118.5224,-87.249 175,-76 -64.8722,-0.2772 -126.0207,14.03 -175,76 z"
         id="path4989"
         inkscape:connector-curvature="0"
         sodipodi:nodetypes="ccc" />
      <path
         style="fill:#630e6c;fill-opacity:1;fill-rule:evenodd;stroke:none;stroke-width:1px;stroke-linecap:butt;stroke-linejoin:miter;stroke-opacity:1"
         d="m 615.44162,359.8622 c 39.3651,-16.3011 138.0866,29.2032 154.5,72 -27.8765,-41.5417 -105.9156,-79.2332 -154.5,-72 z"
         id="path4991"
         inkscape:connector-curvature="0"
         sodipodi:nodetypes="ccc" />
      <path
         style="fill:#69106b;fill-opacity:1;fill-rule:evenodd;stroke:none;stroke-width:1px;stroke-linecap:butt;stroke-linejoin:miter;stroke-opacity:1"
         d="m 502.99954,314.8622 c 20.8935,-18.7082 39.095,-13.1885 56,4 -14.526,-9.2006 -28.5146,-19.4224 -56,-4 z"
         id="path4993"
         inkscape:connector-curvature="0"
         sodipodi:nodetypes="ccc" />
      <path
         sodipodi:nodetypes="cccccc"
         inkscape:connector-curvature="0"
         id="path4995"
         d="m 530.88797,403.945 45.5575,-29.6595 c 14.5457,-10.9222 1.2915,-22.4636 -11.022,-20.6431 -18.4012,1.655 -40.3372,2.1918 -61.7231,-2.61 -19.6659,-2.8348 -23.7067,11.7742 -15.1858,19.2194 16.1801,13.8863 28.249,22.4622 42.3734,33.6932 z"
         style="fill:#e365c2;fill-opacity:1;fill-rule:evenodd;stroke:#630e6c;stroke-width:3.37504029;stroke-linecap:butt;stroke-linejoin:miter;stroke-miterlimit:4;stroke-dasharray:none;stroke-opacity:1" />
      <path
         sodipodi:nodetypes="ccccc"
         inkscape:connector-curvature="0"
         id="path4997"
         d="m 492.99965,365.8622 c 21.4167,18.9187 29.0833,19.0272 72.5,3.75 17.6273,-5.8684 14.7484,-15.2966 2,-15 -14.16718,1.573 -40.70796,3.8629 -65.75,-1.75 -7.9797,-1.8247 -16.8431,2.4821 -8.75,13 z"
         style="fill:#f8a0e0;fill-opacity:1;fill-rule:evenodd;stroke:none;stroke-width:1px;stroke-linecap:butt;stroke-linejoin:miter;stroke-opacity:1;filter:url(#filter5239)" />
      <path
         sodipodi:nodetypes="cccccccc"
         inkscape:connector-curvature="0"
         id="path4999"
         d="m 513.60528,377.2979 c 2.081,-5.4131 7.8974,8.0714 8.3519,15.2421 -0.011,2.3057 0.7886,3.2367 2.1668,4.2426 0,0 1.6048,1.1422 1.3296,-0.728 -1.0927,-8.4482 -2.7436,-16.4621 -7.153,-22.3308 -1.6129,-2.0015 -2.7347,-3.212 -5.0508,-3.2961 -5.2412,0.6672 -6.3364,5.3168 -2.3307,8.1615 1.3532,1.0704 2.5436,0.8899 2.6862,-1.2913 z"
         style="fill:#aa3f8e;fill-opacity:1;fill-rule:evenodd;stroke:none;stroke-width:1px;stroke-linecap:butt;stroke-linejoin:miter;stroke-opacity:1" />
      <path
         sodipodi:nodetypes="ccccccc"
         inkscape:connector-curvature="0"
         id="path5001"
         d="m 543.55083,392.3622 c 0,0 -0.065,-8.2224 6.25,-12.625 0.6068,-0.5702 2.6995,-2.6318 3.5,-0.125 -0.065,1.3283 1.8329,2.4361 4.875,-0.875 2.0004,-2.1672 -0.8733,-6.7199 -6.25,-5 -10.8847,5.7497 -12.0527,17.7884 -13.125,23.125 z"
         style="fill:#b44697;fill-opacity:1;fill-rule:evenodd;stroke:none;stroke-width:1px;stroke-linecap:butt;stroke-linejoin:miter;stroke-opacity:1" />
      <path
         style="fill:#630e6c;fill-opacity:1;fill-rule:evenodd;stroke:none;stroke-width:1px;stroke-linecap:butt;stroke-linejoin:miter;stroke-opacity:1"
         d="m 214.46761,514.8622 c 8.3128,21.9581 21.9555,40.363 44.25,53 -16.0683,-14.7005 -30.8483,-32.2996 -44.25,-53 z"
         id="path5003"
         inkscape:connector-curvature="0"
         sodipodi:nodetypes="ccc" />
      <path
         style="fill:#630e6c;fill-opacity:1;fill-rule:evenodd;stroke:none;stroke-width:1px;stroke-linecap:butt;stroke-linejoin:miter;stroke-opacity:1"
         d="m 250.71761,524.6122 c 11.2257,23.2469 28.0554,37.6206 47.25,48.25 -18.9083,-13.6269 -34.3382,-29.9592 -47.25,-48.25 z"
         id="path5005"
         inkscape:connector-curvature="0"
         sodipodi:nodetypes="ccc" />
      <path
         style="fill:#630e6c;fill-opacity:1;fill-rule:evenodd;stroke:none;stroke-width:1px;stroke-linecap:butt;stroke-linejoin:miter;stroke-opacity:1"
         d="m 625.96761,541.3622 c -38.273,38.5223 -153.4328,33.8665 -193,2 58.3085,29.9426 146.2493,28.5962 193,-2 z"
         id="path5007"
         inkscape:connector-curvature="0"
         sodipodi:nodetypes="ccc" />
      <path
         style="fill:#630e6c;fill-opacity:1;fill-rule:evenodd;stroke:none;stroke-width:1px;stroke-linecap:butt;stroke-linejoin:miter;stroke-opacity:1"
         d="m 826.4676,507.8622 c -18.471,27.5791 -45.40249,39.3782 -71.99999,52.5 32.0383,-19.1631 53.53289,-36.1447 71.99999,-52.5 z"
         id="path5009"
         inkscape:connector-curvature="0"
         sodipodi:nodetypes="ccc" />
      <path
         style="fill:#630e6c;fill-opacity:1;fill-rule:evenodd;stroke:none;stroke-width:1px;stroke-linecap:butt;stroke-linejoin:miter;stroke-opacity:1"
         d="m 866.9676,489.8622 c -3.893,13.2976 -45.1452,57.6094 -68.5,63 27.4553,-17.8224 48.4929,-40.057 68.5,-63 z"
         id="path5011"
         inkscape:connector-curvature="0"
         sodipodi:nodetypes="ccc" />
      <path
         style="fill:#620d6b;fill-opacity:1;fill-rule:evenodd;stroke:none;stroke-width:1px;stroke-linecap:butt;stroke-linejoin:miter;stroke-opacity:1"
         d="m 762.50032,188.8622 c 0.6399,-59.3855 135.98698,-112.712 155.99998,-109 l -2.5,-6 c -64.916,14.758 -162.02098,70.1187 -153.49998,115 z"
         id="path5013"
         inkscape:connector-curvature="0"
         sodipodi:nodetypes="cccc" />
      <path
         style="fill:#620d6b;fill-opacity:1;fill-rule:evenodd;stroke:none;stroke-width:1px;stroke-linecap:butt;stroke-linejoin:miter;stroke-opacity:1"
         d="m 321.50032,188.3622 c -8.2873,-57.4046 -85.0298,-91.1681 -152.5,-104 l -2,4.5 c 61.5067,6.8673 145.8026,53.0112 154.5,99.5 z"
         id="path5015"
         inkscape:connector-curvature="0"
         sodipodi:nodetypes="cccc" />
      <g
         transform="translate(-747,1.9999993e-7)"
         id="g5017">
        <g
           id="g5019">
          <path
             sodipodi:nodetypes="ccccc"
             inkscape:connector-curvature="0"
             id="path5021"
             d="m 1212.0958,273.83764 c 11.9367,34.63529 -11.4006,59.72274 -43.7193,84.97413 -34.6433,4.24002 -60.1275,16.11264 -82.8528,30.28428 -26.1715,6.98567 -84.6989,22.10301 -109.6016,-29.69849 -37.6942,-123.55218 201.2158,-171.64606 236.1737,-85.55992 z"
             style="fill:#f1eda7;fill-opacity:1;fill-rule:evenodd;stroke:#620d6b;stroke-width:4;stroke-linecap:butt;stroke-linejoin:miter;stroke-miterlimit:4;stroke-dasharray:none;stroke-opacity:1" />
          <path
             transform="matrix(1.2141064,0,0,1.0221948,-230.28742,-3.6001225)"
             sodipodi:nodetypes="ccccc"
             inkscape:connector-curvature="0"
             id="path5023"
             d="m 1018.1958,295.90285 c -18.5558,43.55856 9.6351,78.7959 68.059,62.48042 18.0454,-6.87239 31.372,-19.57933 44.6289,-30.12449 26.3738,-18.84266 21.5401,-107.45074 -59.1333,-74.75336 -17.8515,7.00229 -41.8396,19.91971 -53.5546,42.39743 z"
             style="fill:#ffffff;fill-opacity:0.85350318;fill-rule:evenodd;stroke:none;stroke-width:1px;stroke-linecap:butt;stroke-linejoin:miter;stroke-opacity:1;filter:url(#filter5464)" />
          <path
             sodipodi:nodetypes="ccccc"
             inkscape:connector-curvature="0"
             id="path5025"
             d="m 1066.0328,248.43802 c 9.0069,-5.20122 57.658,-20.61912 63.1147,28.40164 2.6253,31.27702 2.7805,62.63637 -41.0245,95.46107 -18.0029,13.03993 -50.4534,17.64178 -65.8761,-19.13166 -8.9871,-28.53496 0.3897,-76.57646 43.7859,-104.73105 z"
             style="fill:#000308;fill-opacity:1;fill-rule:evenodd;stroke:none;stroke-width:1px;stroke-linecap:butt;stroke-linejoin:miter;stroke-opacity:1" />
          <ellipse
             ry="9.7625656"
             rx="9.4836349"
             cy="348.62067"
             cx="1326.5931"
             id="ellipse5027"
             style="fill:#ffffff;fill-opacity:1;stroke:none;stroke-width:4;stroke-miterlimit:4;stroke-dasharray:none;stroke-opacity:1;filter:url(#filter5738)"
             transform="matrix(1.1687052,0,0,1.1687052,-474.84143,-52.446202)" />
          <ellipse
             ry="8.6140289"
             rx="8.3679132"
             cy="354.23206"
             cx="1076.4862"
             id="ellipse5029"
             style="fill:#ffffff;fill-opacity:0;stroke:none;stroke-width:4;stroke-miterlimit:4;stroke-dasharray:none;stroke-opacity:1" />
          <ellipse
             transform="matrix(2.5805221,0,0,2.5805221,-2381.1418,-622.63473)"
             style="fill:#ffffff;fill-opacity:1;stroke:none;stroke-width:4;stroke-miterlimit:4;stroke-dasharray:none;stroke-opacity:1;filter:url(#filter5804)"
             id="ellipse5031"
             cx="1326.5931"
             cy="348.62067"
             rx="9.4836349"
             ry="9.7625656" />
          <ellipse
             style="fill:#ffffff;fill-opacity:0;stroke:none;stroke-width:4;stroke-miterlimit:4;stroke-dasharray:none;stroke-opacity:1"
             id="ellipse5033"
             cx="1044.2175"
             cy="278.31815"
             rx="18.476503"
             ry="19.01993" />
        </g>
      </g>
      <path
         style="fill:#620d6b;fill-opacity:1;fill-rule:evenodd;stroke:none;stroke-width:1px;stroke-linecap:butt;stroke-linejoin:miter;stroke-opacity:1"
         d="m 396,194.3622 c 18.5262,1.2878 34.31,8.0854 46.5,24 -13.3298,-13.0638 -29.1765,-20.2548 -46.5,-24 z"
         id="path5035"
         inkscape:connector-curvature="0"
         sodipodi:nodetypes="ccc" />
      <path
         style="fill:#620d6b;fill-opacity:1;fill-rule:evenodd;stroke:none;stroke-width:1px;stroke-linecap:butt;stroke-linejoin:miter;stroke-opacity:1"
         d="m 432.25,193.6122 c 10.6039,2.9067 21.6192,7.6381 28.25,22.75 -10.2134,-12.4266 -22.046,-20.1584 -28.25,-22.75 z"
         id="path5037"
         inkscape:connector-curvature="0"
         sodipodi:nodetypes="ccc" />
      <path
         style="fill:#620d6b;fill-opacity:1;fill-rule:evenodd;stroke:none;stroke-width:1px;stroke-linecap:butt;stroke-linejoin:miter;stroke-opacity:1"
         d="m 437.17767,150.9688 c 20.1769,6.7966 46.7852,16.8501 63.5,60 -14.0294,-23.9451 -28.4672,-46.211 -63.5,-60 z"
         id="path5039"
         inkscape:connector-curvature="0"
         sodipodi:nodetypes="ccc" />
      <path
         style="fill:#620d6b;fill-opacity:1;fill-rule:evenodd;stroke:none;stroke-width:1px;stroke-linecap:butt;stroke-linejoin:miter;stroke-opacity:1"
         d="m 558.85786,214.56931 c 22.6965,-29.0423 50.7694,-44.2598 80,-56.5 -23.837,3.37 -69.6787,31.7027 -80,56.5 z"
         id="path5041"
         inkscape:connector-curvature="0"
         sodipodi:nodetypes="ccc" />
      <path
         style="fill:#620d6b;fill-opacity:1;fill-rule:evenodd;stroke:none;stroke-width:1px;stroke-linecap:butt;stroke-linejoin:miter;stroke-opacity:1"
         d="m 622,212.8622 c 0.7358,-10.6478 15.7438,-21.5191 28.5,-20.5 -12.527,4.2387 -22.5635,10.6122 -28.5,20.5 z"
         id="path5043"
         inkscape:connector-curvature="0"
         sodipodi:nodetypes="ccc" />
      <path
         style="fill:#620d6b;fill-opacity:1;fill-rule:evenodd;stroke:none;stroke-width:1px;stroke-linecap:butt;stroke-linejoin:miter;stroke-opacity:1"
         d="m 646,208.8622 c 3.5839,-10.3843 20.9848,-17.8619 30.375,-16.375 -17.1581,4.3555 -23.4636,10.4184 -30.375,16.375 z"
         id="path5045"
         inkscape:connector-curvature="0"
         sodipodi:nodetypes="ccc" />
      <g
         id="g5047"
         transform="matrix(-1,0,0,1,1812.1657,1.9999993e-7)">
        <g
           id="g5049">
          <path
             style="fill:#f1eda7;fill-opacity:1;fill-rule:evenodd;stroke:#620d6b;stroke-width:4;stroke-linecap:butt;stroke-linejoin:miter;stroke-miterlimit:4;stroke-dasharray:none;stroke-opacity:1"
             d="m 1212.0958,273.83764 c 11.9367,34.63529 -11.4006,59.72274 -43.7193,84.97413 -34.6433,4.24002 -60.1275,16.11264 -82.8528,30.28428 -26.1715,6.98567 -84.6989,22.10301 -109.6016,-29.69849 -37.6942,-123.55218 201.2158,-171.64606 236.1737,-85.55992 z"
             id="path5051"
             inkscape:connector-curvature="0"
             sodipodi:nodetypes="ccccc" />
          <path
             style="fill:#ffffff;fill-opacity:0.85350318;fill-rule:evenodd;stroke:none;stroke-width:1px;stroke-linecap:butt;stroke-linejoin:miter;stroke-opacity:1;filter:url(#filter5464)"
             d="m 1018.1958,295.90285 c -18.5558,43.55856 9.6351,78.7959 68.059,62.48042 18.0454,-6.87239 31.372,-19.57933 44.6289,-30.12449 26.3738,-18.84266 21.5401,-107.45074 -59.1333,-74.75336 -17.8515,7.00229 -41.8396,19.91971 -53.5546,42.39743 z"
             id="path5053"
             inkscape:connector-curvature="0"
             sodipodi:nodetypes="ccccc"
             transform="matrix(1.2141064,0,0,1.0221948,-230.28742,-3.6001225)" />
          <path
             style="fill:#000308;fill-opacity:1;fill-rule:evenodd;stroke:none;stroke-width:1px;stroke-linecap:butt;stroke-linejoin:miter;stroke-opacity:1"
             d="m 1066.0328,248.43802 c 9.0069,-5.20122 57.658,-20.61912 63.1147,28.40164 2.6253,31.27702 2.7805,62.63637 -41.0245,95.46107 -18.0029,13.03993 -50.4534,17.64178 -65.8761,-19.13166 -8.9871,-28.53496 0.3897,-76.57646 43.7859,-104.73105 z"
             id="path5055"
             inkscape:connector-curvature="0"
             sodipodi:nodetypes="ccccc" />
          <ellipse
             transform="matrix(1.1687052,0,0,1.1687052,-474.84143,-52.446202)"
             style="fill:#ffffff;fill-opacity:1;stroke:none;stroke-width:4;stroke-miterlimit:4;stroke-dasharray:none;stroke-opacity:1;filter:url(#filter5738)"
             id="ellipse5057"
             cx="1326.5931"
             cy="348.62067"
             rx="9.4836349"
             ry="9.7625656" />
          <ellipse
             style="fill:#ffffff;fill-opacity:0;stroke:none;stroke-width:4;stroke-miterlimit:4;stroke-dasharray:none;stroke-opacity:1"
             id="ellipse5059"
             cx="1076.4862"
             cy="354.23206"
             rx="8.3679132"
             ry="8.6140289" />
          <ellipse
             ry="9.7625656"
             rx="9.4836349"
             cy="348.62067"
             cx="1326.5931"
             id="ellipse5061"
             style="fill:#ffffff;fill-opacity:1;stroke:none;stroke-width:4;stroke-miterlimit:4;stroke-dasharray:none;stroke-opacity:1;filter:url(#filter5804)"
             transform="matrix(2.5805221,0,0,2.5805221,-2381.1418,-622.63473)" />
          <ellipse
             ry="19.01993"
             rx="18.476503"
             cy="278.31815"
             cx="1044.2175"
             id="ellipse5063"
             style="fill:#ffffff;fill-opacity:0;stroke:none;stroke-width:4;stroke-miterlimit:4;stroke-dasharray:none;stroke-opacity:1" />
        </g>
      </g>
    </g>
  </g>
</svg>
